<svg width="257" height="40" viewBox="0 0 257 40" fill="none" xmlns="http://www.w3.org/2000/svg">
<path fill-rule="evenodd" clip-rule="evenodd" d="M26.9991 1.06641H23.5308C23.0452 1.06641 22.6505 1.46117 22.6505 1.94909V25.092L22.6345 25.1617C22.6345 29.9726 18.734 33.8874 13.9393 33.8874C9.14455 33.8874 5.24411 29.9726 5.24411 25.1617L5.22808 25.092V1.94909C5.22808 1.46117 4.83336 1.06641 4.34781 1.06641H0.879482C0.393262 1.06641 -0.00012207 1.46117 -0.00012207 1.94909V25.1617C-0.00012207 32.7741 6.09232 38.9811 13.6401 39.1419C13.7396 39.1446 13.8391 39.15 13.9393 39.15C14.0395 39.15 14.139 39.1446 14.2392 39.1419C21.7863 38.9811 27.8787 32.7741 27.8787 25.1617V1.94909C27.8787 1.46117 27.4853 1.06641 26.9991 1.06641Z" fill="black"/>
<path fill-rule="evenodd" clip-rule="evenodd" d="M79.2232 19.6955H61.5354C61.0452 19.6955 60.6486 20.0842 60.6486 20.5632V23.6895C60.6486 24.1692 61.0452 24.5579 61.5354 24.5579H70.7072C70.4776 25.7083 70.1241 26.7783 69.6534 27.7481C69.0602 28.9684 68.2569 30.0272 67.2664 30.8982C66.2759 31.7692 65.0604 32.4564 63.6498 32.9407C62.2243 33.4309 60.5779 33.6799 58.7565 33.6799C56.3795 33.6799 54.2712 33.2714 52.4922 32.4669C50.7065 31.6598 49.2008 30.5839 48.0123 29.2701C46.8178 27.9484 45.902 26.4172 45.2886 24.718C44.6705 23.0063 44.3574 21.203 44.3574 19.3568C44.3574 17.4488 44.6866 15.5894 45.3364 13.8296C45.9842 12.0777 46.9188 10.5195 48.1134 9.19777C49.3039 7.88136 50.7799 6.80806 52.5003 6.01018C54.2106 5.21558 56.1714 4.81302 58.3269 4.81302C59.6823 4.81302 60.9732 4.98037 62.1657 5.3098C63.3562 5.63858 64.4194 6.08595 65.3251 6.63873C66.2132 7.18098 66.9708 7.84116 67.5741 8.60084C68.1788 9.36249 68.6212 10.1703 68.8898 11.0017C69.0063 11.3628 69.3484 11.6086 69.7349 11.6086H73.2647C73.532 11.6086 73.7852 11.4893 73.9535 11.2857C74.1232 11.0821 74.1872 10.8146 74.1313 10.5583C73.806 9.0739 73.1805 7.66591 72.2735 6.37058C71.3698 5.08447 70.2116 3.95122 68.8333 3.00179C67.463 2.05764 65.8631 1.31312 64.0773 0.787345C62.3004 0.265523 60.349 0 58.2784 0C55.3149 0 52.6215 0.545541 50.2688 1.62081C47.9289 2.69081 45.8953 4.14229 44.2267 5.93309C42.5568 7.72389 41.2687 9.81249 40.3946 12.1403C39.526 14.4582 39.0863 16.9026 39.0863 19.4062C39.0863 21.8599 39.5092 24.2535 40.3441 26.52C41.1831 28.8004 42.4464 30.8567 44.1008 32.633C45.7566 34.4113 47.8177 35.8555 50.2284 36.9255C52.643 37.9981 55.4698 38.5417 58.6305 38.5417C61.1307 38.5417 63.4222 38.1846 65.4416 37.4829C67.4724 36.7753 69.2629 35.758 70.7651 34.4587C72.2667 33.1594 73.4963 31.5841 74.4222 29.7781C75.2336 28.1949 75.8012 26.4416 76.1163 24.5579H79.2232C79.7134 24.5579 80.11 24.1692 80.11 23.6895V20.5632C80.11 20.0842 79.7134 19.6955 79.2232 19.6955Z" fill="black"/>
<path fill-rule="evenodd" clip-rule="evenodd" d="M126.341 1.66211H122.925C122.567 1.66211 122.245 1.8681 122.104 2.18626C122.104 2.18626 109.95 28.428 109.699 29.0538C109.593 29.3182 109.404 29.473 109.199 29.4651C108.995 29.473 108.806 29.3182 108.7 29.0538C108.449 28.428 96.2952 2.18626 96.2952 2.18626C96.1537 1.8681 95.832 1.66211 95.4744 1.66211H92.0576C91.5659 1.66211 91.1663 2.04916 91.1663 2.52608V37.6771C91.1663 38.1547 91.5659 38.5417 92.0576 38.5417H95.576C96.0683 38.5417 96.4679 38.1547 96.4679 37.6771V16.7444C96.4679 16.2984 97.0111 16.3069 97.1262 16.5896C97.4208 17.3152 106.946 38.0103 106.946 38.0103C107.083 38.3318 107.409 38.5417 107.769 38.5417H110.63C110.99 38.5417 111.315 38.3318 111.452 38.0103C111.452 38.0103 120.978 17.3152 121.273 16.5896C121.388 16.3069 121.93 16.2984 121.93 16.7444V37.6771C121.93 38.1547 122.331 38.5417 122.823 38.5417H126.341C126.833 38.5417 127.232 38.1547 127.232 37.6771V2.52608C127.232 2.04916 126.833 1.66211 126.341 1.66211Z" fill="black"/>
<path fill-rule="evenodd" clip-rule="evenodd" d="M171.098 25.5609C170.465 27.294 169.544 28.8496 168.363 30.1853C167.191 31.5137 165.726 32.6002 164.014 33.415C162.312 34.2244 160.377 34.635 158.264 34.635C156.118 34.635 154.181 34.225 152.505 33.417C150.816 32.6022 149.369 31.5157 148.202 30.1873C147.028 28.851 146.112 27.2946 145.479 25.5609C144.843 23.8211 144.52 21.9804 144.52 20.0898C144.52 18.1979 144.843 16.3478 145.479 14.5914C146.112 12.8417 147.028 11.2781 148.202 9.94305C149.369 8.61399 150.815 7.53213 152.502 6.72738C154.178 5.92596 156.118 5.51993 158.264 5.51993C160.394 5.51993 162.334 5.92662 164.028 6.72805C165.731 7.53479 167.19 8.61665 168.363 9.94504C169.544 11.2794 170.464 12.8424 171.098 14.5914C171.735 16.3485 172.057 18.1985 172.057 20.0898C172.057 21.9797 171.735 23.8205 171.098 25.5609ZM172.212 6.6091C170.579 4.82616 168.567 3.37549 166.23 2.29695C163.882 1.21443 161.203 0.665527 158.264 0.665527C155.329 0.665527 152.649 1.21443 150.296 2.29695C147.953 3.37549 145.935 4.82549 144.297 6.60777C142.659 8.3907 141.394 10.4813 140.538 12.8218C139.686 15.1516 139.254 17.5978 139.254 20.0898C139.254 22.599 139.686 25.0485 140.538 27.3704C141.395 29.7022 142.659 31.7922 144.296 33.5824C145.933 35.374 147.952 36.8293 150.296 37.9079C152.649 38.9897 155.329 39.5386 158.264 39.5386C161.203 39.5386 163.882 38.9897 166.23 37.9072C168.567 36.8293 170.581 35.374 172.213 33.5818C173.842 31.7942 175.114 29.7022 175.997 27.3657C176.877 25.0339 177.323 22.5858 177.323 20.0898C177.323 17.5945 176.877 15.147 175.997 12.8138C175.114 10.476 173.841 8.38938 172.212 6.6091Z" fill="black"/>
<path fill-rule="evenodd" clip-rule="evenodd" d="M215.518 1.66211H212.056C211.572 1.66211 211.179 2.04916 211.179 2.52608V28.0508C211.179 28.2568 210.96 28.3775 210.788 28.0849C210.617 27.7923 194.808 2.07868 194.808 2.07868C194.648 1.82021 194.364 1.66211 194.057 1.66211H190.223C189.738 1.66211 189.345 2.04916 189.345 2.52608V37.6771C189.345 38.1547 189.738 38.5417 190.223 38.5417H193.682C194.167 38.5417 194.56 38.1547 194.56 37.6771V12.2377C194.56 11.8598 194.82 11.8867 194.92 12.0487C195.018 12.2108 210.932 38.1245 210.932 38.1245C211.091 38.3836 211.375 38.5417 211.683 38.5417H215.518C216.002 38.5417 216.395 38.1547 216.395 37.6771V2.52608C216.395 2.04916 216.002 1.66211 215.518 1.66211Z" fill="black"/>
<path fill-rule="evenodd" clip-rule="evenodd" d="M239.946 19.7578L256.75 2.56922C256.996 2.31804 257.068 1.9426 256.932 1.61699C256.797 1.29139 256.481 1.08008 256.131 1.08008H251.743C251.511 1.08008 251.289 1.17244 251.126 1.3379L236.095 16.5688V1.95522C236.095 1.47147 235.706 1.08008 235.226 1.08008H231.8C231.321 1.08008 230.931 1.47147 230.931 1.95522V37.561C230.931 38.0447 231.321 38.4361 231.8 38.4361H235.226C235.706 38.4361 236.095 38.0447 236.095 37.561V22.9474L251.126 38.1783C251.289 38.3438 251.511 38.4361 251.743 38.4361H256.131C256.481 38.4361 256.797 38.2241 256.932 37.8992C257.068 37.5743 256.996 37.1982 256.75 36.9463L239.946 19.7578Z" fill="black"/>
</svg>
